<?xml version="1.0" encoding="UTF-8" standalone="no"?>
<!-- exclude: sm/compile-html  build: movie-app -->
<svg class="footer_svg" viewBox="0 0 1500 108" xmlns:xlink="http://www.w3.org/1999/xlink"  xmlns="http://www.w3.org/2000/svg">
  <title>footer</title>
  <style>
   tspan {
       font-weight: 400;
   }
  </style>
  <defs>
    <radialGradient gradientUnits="userSpaceOnUse" id="yellow-gradient" cy="100%" cx="69.255%" r="30%">
      <stop stop-color="#fd0" stop-opacity=".31884" offset="0"/>
      <stop stop-color="#fff" stop-opacity="0" offset="1"/>
    </radialGradient>
    <radialGradient gradientUnits="userSpaceOnUse" id="grey-gradient" cy="19%" cx="50%" r="10%">
      <stop stop-color="#8791AA" stop-opacity=".28261" offset="0"/>
      <stop stop-color="#fff" stop-opacity="0" offset="1"/>
    </radialGradient>
    <path id="base-shape" d="m0 112v-79h677c2.11 0 9.21-0.807 14-3 4.66-2.134 9.85-5.635 11.68-7.147 12.25-10.094 30.5-17.853 48.32-17.853 17.96 0 36.32 7.863 48.6 18.109 1.78 1.488 6.75 4.804 11.4 6.891 4.72 2.119 11.97 3 14.29 3h674.71v79h-639.2-216.6-644.2z"/>
    <filter id="dropshadow" height="200%" width="200%" y="-50%" x="-50%" filterUnits="objectBoundingBox">
      <feOffset in="SourceAlpha" result="shadowOffsetOuter1" dx="6" dy="5"/>
      <feGaussianBlur stdDeviation="8" result="shadowBlurOuter1" in="shadowOffsetOuter1"/>
      <feColorMatrix type="matrix" values="0 0 0 0 0   0 0 0 0 0   0 0 0 0 0  0 0 0 0.142028986 0" result="shadowMatrixOuter1" in="shadowBlurOuter1"/>
      <feMerge>
        <feMergeNode in="shadowMatrixOuter1"/>
        <feMergeNode in="SourceGraphic"/>
      </feMerge>
    </filter>
    <path id="circle-button" d="m797.7 112c8.31-10.23 13.3-23.285 13.3-37.5 0-32.861-26.64-59.5-59.5-59.5s-59.5 26.639-59.5 59.5c0 14.215 4.99 27.27 13.3 37.5h92.4z"/>
  </defs>
  <g fill="none" transform="translate(0 -4)">
    <g>
      <use xlink:href="#base-shape" fill="#E4E9F5"/>
      <use xlink:href="#base-shape" fill="url(#yellow-gradient)"/>
      <use xlink:href="#base-shape" fill="url(#grey-gradient)"/>
    </g>
    <g filter="url(#dropshadow)">
      <!-- + -->
      <a class="svg_link" id="svg_search" xlink:href="#search">
        <use xlink:href="#circle-button" fill-rule="evenodd" fill="#FFFFFF"/>
        <use xlink:href="#circle-button" fill="none"/>
      </a>
    </g>
    <g fill="#434343" transform="translate(552 46)">
      <g transform="translate(175)">
        <rect y="0" x="23" height="47" width="2"/>
        <rect transform="translate(24 23.5) rotate(90) translate(-24 -23.5)" height="47" width="2" y="0" x="23"/>
      </g>
      <!-- home -->
      <text font-size="36" font-family="Source Sans Pro">
        <a class="svg_link" xlink:href="#home" id="svg_home"><tspan y="40" x="0">Movies</tspan></a>
      </text>
      <!-- lists -->
      <text font-size="36" font-family="Source Sans Pro">
        <a class="svg_link" xlink:href="#lists" id="svg_lists"><tspan y="40" x="310">Lists</tspan></a>
      </text>
    </g>
  </g>
  <script type="text/javascript">
   <![CDATA[
       /*
       jQuery('.svg_link').one('click', function(e){
           console.log(jQuery(this), e);
           //debugger
           goto = jQuery(this).attr('xlink:href');
           jQuery('body').pagecontainer('change', goto);
           return false
       });
       */
   ]]>
  </script>
</svg>
