<!-- exclude: sm/compile-html  build: movie-app -->
<!DOCTYPE svg PUBLIC "-//W3C//DTD SVG 1.1//EN" "http://www.w3.org/Graphics/SVG/1.1/DTD/svg11.dtd">
<svg class="footer"
     xmlns:rdf="http://www.w3.org/1999/02/22-rdf-syntax-ns#"
     xmlns="http://www.w3.org/2000/svg"
     version="1.1"
     xmlns:cc="http://creativecommons.org/ns#"
     xmlns:xlink="http://www.w3.org/1999/xlink"
     viewbox="0 0 996 107"
     xmlns:dc="http://purl.org/dc/elements/1.1/">
  <!-- viewbox="0 0 640 107" -->
  <title>Footer</title>
  <defs>
    <style type="test/css">
    </style>
    <radialGradient id="radialGradient-1" gradientUnits="userSpaceOnUse" cy="196.05" cx="261.69" gradientTransform="matrix(.46261 .0030092 -.0026597 .40888 519.46 -.78577)" r="646.45">
      <stop stop-color="#fd0" stop-opacity=".17644" offset="0"/>
      <stop stop-color="#fff" stop-opacity="0" offset="1"/>
    </radialGradient>
    <radialGradient id="radialGradient-2" gradientUnits="userSpaceOnUse" cy="51.956" cx="130.84" gradientTransform="matrix(.40976 0 0 .40889 266.39 4.9134e-7)" r="343.02">
      <stop stop-color="#8791AA" stop-opacity=".28261" offset="0"/>
      <stop stop-color="#fff" stop-opacity="0" offset="1"/>
    </radialGradient>
    <path id="base-shape" d="m214.2 108h-214.2v-79h265.5c12.57-16.987 32.75-28 55.5-28s42.93 11.013 55.5 28h263.5v79h-209.2-216.6z"/>
    <filter id="filter-4" height="200%" width="200%" y="-50%" x="-50%" filterUnits="objectBoundingBox">
      <feOffset in="SourceAlpha" result="shadowOffsetOuter1" dx="3" dy="3"/>
      <feGaussianBlur stdDeviation="4.5" result="shadowBlurOuter1" in="shadowOffsetOuter1"/>
      <feColorMatrix type="matrix" values="0 0 0 0 0   0 0 0 0 0   0 0 0 0 0  0 0 0 0.26884058 0" result="shadowMatrixOuter1" in="shadowBlurOuter1"/>
      <feMerge>
        <feMergeNode in="shadowMatrixOuter1"/>
        <feMergeNode in="SourceGraphic"/>
      </feMerge>
    </filter>
    <path id="round-button" d="m367.7 108c8.31-10.234 13.3-23.285 13.3-37.5 0-32.861-26.64-59.5-59.5-59.5s-59.5 26.639-59.5 59.5c0 14.215 4.99 27.266 13.3 37.5h92.4z"/>
    <path id="base-shape-wide" d="M392.198739,108 L0,108 L0,29 L443.496741,29 C456.065537,12.0133274 476.246618,1 499,1 C521.753382,1 541.934463,12.0133274 554.503259,29 L996,29 L996,108 L608.801261,108 L392.198739,108 Z"/>
  </defs>

  <g id="base2">
    <use xlink:href="#base-shape-wide"/>
  </g>
  <g id="base1">
    <!-- base shape -->
    <use xlink:href="#base-shape" fill="#E4E9F5"/>
    <!-- yellow gradient -->
    <use xlink:href="#base-shape" fill="url(#radialGradient-1)"/>
    <!-- grey gradient above center button -->
    <use xlink:href="#base-shape" fill="url(#radialGradient-2)"/>
  </g>
  <g filter="url(#filter-4)">
    <use xlink:href="#round-button" fill-rule="evenodd" fill="#FFFFFF"/>
    <use xlink:href="#round-button" fill="none"/>
  </g>
  <a id="big_button_link" xlink:href="search.html">
    <text id="big_button" font-size="95px" font-family="&apos;Helvetica Neue&apos;" font-weight="100" fill="#595858" y="91" x="292">+</text>
  </a>
  <g font-size="29px" font-family="&apos;Helvetica Neue&apos;" font-weight="normal" line-height="125%" fill="#434343" transform="translate(44 47)">
    <a xlink:href="settings.html"><text y="28" x="372">Settings</text></a>
    <a xlink:href="help.html"><text y="28" x="503">Help</text></a>
    <a xlink:href="lists.html"><text y="28" x="0">Lists</text></a>
    <a xlink:href="share.html"><text y="28" x="102">Share</text></a>
  </g>
</svg>
